<svg xmlns="http://www.w3.org/2000/svg" version="1.1" xmlns:xlink="http://www.w3.org/1999/xlink" xmlns:svgjs="http://svgjs.com/svgjs" width="1440" height="560" preserveAspectRatio="none" viewBox="0 0 1440 560"><g mask="url(&quot;#SvgjsMask1007&quot;)" fill="none"><rect width="1440" height="560" x="0" y="0" fill="rgba(235, 237, 238, 1)"></rect><path d="M392.82 26.88a21.38 21.38 0 1 0 21.19-37.14z" fill="#037b0b"></path><path d="M382.32 552.05L409.55 552.05L409.55 579.28L382.32 579.28z" stroke="#e73635"></path><path d="M462.94 178.92L483.74 178.92L483.74 199.72L462.94 199.72z" fill="#e73635"></path><path d="M816.73 291.29a32.45 32.45 0 1 0 20.82 61.48z" stroke="#e73635"></path><path d="M1060.96 542.52L1083.1 542.52L1083.1 564.66L1060.96 564.66z" stroke="#e73635"></path><path d="M1378.47 194.82 a11.71 11.71 0 1 0 23.42 0 a11.71 11.71 0 1 0 -23.42 0z" stroke="#d3b714"></path><path d="M1278.61 18.99a35.99 35.99 0 1 0 71.9-3.3z" stroke="#d3b714"></path><path d="M114.25 160.15L117.18 160.15L117.18 193.57L114.25 193.57z" stroke="#d3b714"></path><path d="M1202.27 4.63L1243.82 4.63L1243.82 46.18L1202.27 46.18z" fill="#d3b714"></path><path d="M27.79 31.26 a14.72 14.72 0 1 0 29.44 0 a14.72 14.72 0 1 0 -29.44 0z" fill="#037b0b"></path><path d="M177.82 554.46 a31.89 31.89 0 1 0 63.78 0 a31.89 31.89 0 1 0 -63.78 0z" stroke="#e73635"></path><path d="M1324.6 555.07L1327.77 555.07L1327.77 579.84L1324.6 579.84z" fill="#d3b714"></path><path d="M1188.85 362.11a41.72 41.72 0 1 0 14.9 82.1z" stroke="#e73635"></path><path d="M1195.46 464.56 a34.79 34.79 0 1 0 69.58 0 a34.79 34.79 0 1 0 -69.58 0z" fill="#037b0b"></path><path d="M923.78 24.52 a6.73 6.73 0 1 0 13.46 0 a6.73 6.73 0 1 0 -13.46 0z" stroke="#037b0b"></path><path d="M727.87 356.25L774.66 356.25L774.66 373.26L727.87 373.26z" stroke="#037b0b"></path><path d="M531.38 439.79 a21.99 21.99 0 1 0 43.98 0 a21.99 21.99 0 1 0 -43.98 0z" stroke="#d3b714"></path><path d="M1155.79 413.15a7.67 7.67 0 1 0-13.64-7.03z" fill="#d3b714"></path><path d="M1061.25 419.29L1100.83 419.29L1100.83 458.87L1061.25 458.87z" fill="#d3b714"></path><path d="M661.19 37.54a27.4 27.4 0 1 0-19.28-51.29z" stroke="#d3b714"></path><path d="M865.35 185.01a24.1 24.1 0 1 0-10.47-47.05z" fill="#037b0b"></path><path d="M410.8 55.7a27.62 27.62 0 1 0 31.05-45.68z" stroke="#037b0b"></path><path d="M1228.64 495.84 a10.92 10.92 0 1 0 21.84 0 a10.92 10.92 0 1 0 -21.84 0z" fill="#e73635"></path><path d="M713.83 321.62a10.16 10.16 0 1 0 19.17-6.74z" stroke="#037b0b"></path><path d="M719.76 62.55L734.49 62.55L734.49 83.15L719.76 83.15z" stroke="#e73635"></path><path d="M1216.22 202.78 a39.61 39.61 0 1 0 79.22 0 a39.61 39.61 0 1 0 -79.22 0z" stroke="#d3b714"></path><path d="M258.15 511.6L272.08 511.6L272.08 541.99L258.15 541.99z" stroke="#e73635"></path><path d="M760.07 558.92 a13.76 13.76 0 1 0 27.52 0 a13.76 13.76 0 1 0 -27.52 0z" stroke="#d3b714"></path><path d="M739.86 557.66L754.62 557.66L754.62 596.4L739.86 596.4z" fill="#037b0b"></path><path d="M435.61 61.14L439.88 61.14L439.88 77.96L435.61 77.96z" fill="#d3b714"></path><path d="M468.88 315.35a4.78 4.78 0 1 0-8.61-4.16z" stroke="#e73635"></path><path d="M218.99 511.24 a31.32 31.32 0 1 0 62.64 0 a31.32 31.32 0 1 0 -62.64 0z" stroke="#037b0b"></path><path d="M909.12 126.1a13 13 0 1 0 15.81-20.64z" fill="#e73635"></path></g><defs><mask id="SvgjsMask1007"><rect width="1440" height="560" fill="#ffffff"></rect></mask></defs></svg>